<?xml version="1.0" encoding="UTF-8"?><svg id="a" xmlns="http://www.w3.org/2000/svg" viewBox="0 0 32 31.86"><ellipse cx="16" cy="15.93" rx="16" ry="15.93" style="fill:#fff; stroke-width:0px;"/><path d="M16,1c2.03,0,3.99.39,5.84,1.17,1.79.75,3.39,1.83,4.77,3.2,1.38,1.37,2.46,2.97,3.21,4.75.78,1.84,1.18,3.79,1.18,5.81s-.4,3.97-1.18,5.81c-.76,1.78-1.84,3.37-3.21,4.75-1.38,1.37-2.98,2.45-4.77,3.2-1.85.78-3.81,1.17-5.84,1.17s-3.99-.39-5.84-1.17c-1.79-.75-3.39-1.83-4.77-3.2-1.38-1.37-2.46-2.97-3.21-4.75-.78-1.84-1.18-3.79-1.18-5.81s.4-3.97,1.18-5.81c.76-1.78,1.84-3.37,3.21-4.75,1.38-1.37,2.98-2.45,4.77-3.2,1.85-.78,3.81-1.17,5.84-1.17M16,0C7.16,0,0,7.13,0,15.93s7.16,15.93,16,15.93,16-7.13,16-15.93S24.84,0,16,0h0Z" style="fill:#000; stroke-width:0px;"/><circle cx="15.99" cy="11.33" r="6.23" style="fill:#000; stroke-width:0px;"/><path d="M10.64,28.58c1.69.72,3.5,1.08,5.35,1.08s3.66-.36,5.35-1.08c1.64-.69,3.11-1.68,4.37-2.95.57-.57,1.08-1.18,1.54-1.83-.09-.39-.19-.8-.32-1.22-.96-3.17-1.47-6.29-3.8-8.3-1.16,2.8-3.92,4.77-7.14,4.77s-6-1.98-7.16-4.8c-2.35,2.01-2.91,5.13-3.83,8.33-.12.41-.21.8-.29,1.18.46.66.98,1.28,1.56,1.86,1.26,1.26,2.73,2.25,4.37,2.95Z" style="fill:#000; stroke-width:0px;"/></svg>